<svg width="60" height="60" viewBox="0 0 60 60" fill="none" xmlns="http://www.w3.org/2000/svg">
<circle cx="30" cy="30" r="30" fill="#525480"/>
<path d="M21 37C20.175 37 19.4688 36.6965 18.8813 36.0894C18.2937 35.4823 18 34.7525 18 33.9V9.1C18 8.2475 18.2937 7.51771 18.8813 6.91063C19.4688 6.30354 20.175 6 21 6H33L42 15.3V33.9C42 34.7525 41.7063 35.4823 41.1188 36.0894C40.5313 36.6965 39.825 37 39 37H21ZM31.5 16.85V9.1H21V33.9H39V16.85H31.5Z" fill="#A5A8FF"/>
<path d="M13.4638 37.2727V46H12.2536L7.81747 39.5994H7.73651V46H6.41974V37.2727H7.63849L12.0788 43.6818H12.1598V37.2727H13.4638ZM18.1033 46.1321C17.4585 46.1321 16.9031 45.9943 16.4371 45.7188C15.9741 45.4403 15.6161 45.0497 15.3633 44.5469C15.1133 44.0412 14.9883 43.4489 14.9883 42.7699C14.9883 42.0994 15.1133 41.5085 15.3633 40.9972C15.6161 40.4858 15.9684 40.0866 16.4201 39.7997C16.8746 39.5128 17.4059 39.3693 18.0138 39.3693C18.3832 39.3693 18.7411 39.4304 19.0877 39.5526C19.4343 39.6747 19.7454 39.8665 20.021 40.1278C20.2965 40.3892 20.5138 40.7287 20.6729 41.1463C20.832 41.5611 20.9116 42.0653 20.9116 42.6591V43.1108H15.7085V42.1562H19.663C19.663 41.821 19.5948 41.5241 19.4585 41.2656C19.3221 41.0043 19.1303 40.7983 18.8832 40.6477C18.6388 40.4972 18.3519 40.4219 18.0224 40.4219C17.6644 40.4219 17.3519 40.5099 17.0849 40.6861C16.8207 40.8594 16.6161 41.0866 16.4712 41.3679C16.3292 41.6463 16.2582 41.9489 16.2582 42.2756V43.0213C16.2582 43.4588 16.3349 43.831 16.4883 44.1378C16.6445 44.4446 16.8619 44.679 17.1403 44.8409C17.4187 45 17.744 45.0795 18.1161 45.0795C18.3576 45.0795 18.5778 45.0455 18.7766 44.9773C18.9755 44.9062 19.1474 44.8011 19.2923 44.6619C19.4371 44.5227 19.5479 44.3509 19.6246 44.1463L20.8306 44.3636C20.734 44.7187 20.5607 45.0298 20.3107 45.2969C20.0636 45.5611 19.7525 45.767 19.3775 45.9148C19.0053 46.0597 18.5806 46.1321 18.1033 46.1321ZM25.0824 46.1321C24.4688 46.1321 23.9332 45.9915 23.4759 45.7102C23.0185 45.429 22.6634 45.0355 22.4105 44.5298C22.1577 44.0241 22.0312 43.4332 22.0312 42.7571C22.0312 42.0781 22.1577 41.4844 22.4105 40.9759C22.6634 40.4673 23.0185 40.0724 23.4759 39.7912C23.9332 39.5099 24.4688 39.3693 25.0824 39.3693C25.696 39.3693 26.2315 39.5099 26.6889 39.7912C27.1463 40.0724 27.5014 40.4673 27.7543 40.9759C28.0071 41.4844 28.1335 42.0781 28.1335 42.7571C28.1335 43.4332 28.0071 44.0241 27.7543 44.5298C27.5014 45.0355 27.1463 45.429 26.6889 45.7102C26.2315 45.9915 25.696 46.1321 25.0824 46.1321ZM25.0866 45.0625C25.4844 45.0625 25.8139 44.9574 26.0753 44.7472C26.3366 44.5369 26.5298 44.2571 26.6548 43.9077C26.7827 43.5582 26.8466 43.1733 26.8466 42.7528C26.8466 42.3352 26.7827 41.9517 26.6548 41.6023C26.5298 41.25 26.3366 40.9673 26.0753 40.7543C25.8139 40.5412 25.4844 40.4347 25.0866 40.4347C24.6861 40.4347 24.3537 40.5412 24.0895 40.7543C23.8281 40.9673 23.6335 41.25 23.5057 41.6023C23.3807 41.9517 23.3182 42.3352 23.3182 42.7528C23.3182 43.1733 23.3807 43.5582 23.5057 43.9077C23.6335 44.2571 23.8281 44.5369 24.0895 44.7472C24.3537 44.9574 24.6861 45.0625 25.0866 45.0625ZM30.8299 42.1136V46H29.5558V39.4545H30.7788V40.5199H30.8597C31.0103 40.1733 31.2461 39.8949 31.5671 39.6847C31.891 39.4744 32.2987 39.3693 32.7901 39.3693C33.2362 39.3693 33.6268 39.4631 33.962 39.6506C34.2972 39.8352 34.5572 40.1108 34.7418 40.4773C34.9265 40.8437 35.0188 41.2969 35.0188 41.8366V46H33.7447V41.9901C33.7447 41.5156 33.6211 41.1449 33.3739 40.8778C33.1268 40.608 32.7873 40.473 32.3555 40.473C32.06 40.473 31.7972 40.5369 31.5671 40.6648C31.3398 40.7926 31.1594 40.9801 31.0259 41.2273C30.8952 41.4716 30.8299 41.767 30.8299 42.1136ZM39.4847 46.1321C38.8711 46.1321 38.3356 45.9915 37.8782 45.7102C37.4208 45.429 37.0657 45.0355 36.8129 44.5298C36.56 44.0241 36.4336 43.4332 36.4336 42.7571C36.4336 42.0781 36.56 41.4844 36.8129 40.9759C37.0657 40.4673 37.4208 40.0724 37.8782 39.7912C38.3356 39.5099 38.8711 39.3693 39.4847 39.3693C40.0984 39.3693 40.6339 39.5099 41.0913 39.7912C41.5487 40.0724 41.9038 40.4673 42.1566 40.9759C42.4094 41.4844 42.5359 42.0781 42.5359 42.7571C42.5359 43.4332 42.4094 44.0241 42.1566 44.5298C41.9038 45.0355 41.5487 45.429 41.0913 45.7102C40.6339 45.9915 40.0984 46.1321 39.4847 46.1321ZM39.489 45.0625C39.8867 45.0625 40.2163 44.9574 40.4776 44.7472C40.739 44.5369 40.9322 44.2571 41.0572 43.9077C41.185 43.5582 41.2489 43.1733 41.2489 42.7528C41.2489 42.3352 41.185 41.9517 41.0572 41.6023C40.9322 41.25 40.739 40.9673 40.4776 40.7543C40.2163 40.5412 39.8867 40.4347 39.489 40.4347C39.0884 40.4347 38.756 40.5412 38.4918 40.7543C38.2305 40.9673 38.0359 41.25 37.908 41.6023C37.783 41.9517 37.7205 42.3352 37.7205 42.7528C37.7205 43.1733 37.783 43.5582 37.908 43.9077C38.0359 44.2571 38.2305 44.5369 38.4918 44.7472C38.756 44.9574 39.0884 45.0625 39.489 45.0625ZM47.0135 39.4545V40.4773H43.4382V39.4545H47.0135ZM44.397 37.8864H45.6712V44.0781C45.6712 44.3253 45.7081 44.5114 45.782 44.6364C45.8558 44.7585 45.951 44.8423 46.0675 44.8878C46.1868 44.9304 46.3161 44.9517 46.4553 44.9517C46.5575 44.9517 46.647 44.9446 46.7237 44.9304C46.8004 44.9162 46.8601 44.9048 46.9027 44.8963L47.1328 45.9489C47.0589 45.9773 46.9538 46.0057 46.8175 46.0341C46.6811 46.0653 46.5107 46.0824 46.3061 46.0852C45.9709 46.0909 45.6584 46.0312 45.3686 45.9062C45.0788 45.7812 44.8445 45.5881 44.6655 45.3267C44.4865 45.0653 44.397 44.7372 44.397 44.3423V37.8864ZM51.1737 46.1321C50.5288 46.1321 49.9734 45.9943 49.5075 45.7188C49.0444 45.4403 48.6864 45.0497 48.4336 44.5469C48.1836 44.0412 48.0586 43.4489 48.0586 42.7699C48.0586 42.0994 48.1836 41.5085 48.4336 40.9972C48.6864 40.4858 49.0387 40.0866 49.4904 39.7997C49.945 39.5128 50.4762 39.3693 51.0842 39.3693C51.4535 39.3693 51.8114 39.4304 52.158 39.5526C52.5046 39.6747 52.8157 39.8665 53.0913 40.1278C53.3668 40.3892 53.5842 40.7287 53.7433 41.1463C53.9023 41.5611 53.9819 42.0653 53.9819 42.6591V43.1108H48.7788V42.1562H52.7333C52.7333 41.821 52.6651 41.5241 52.5288 41.2656C52.3924 41.0043 52.2006 40.7983 51.9535 40.6477C51.7092 40.4972 51.4222 40.4219 51.0927 40.4219C50.7347 40.4219 50.4222 40.5099 50.1552 40.6861C49.891 40.8594 49.6864 41.0866 49.5415 41.3679C49.3995 41.6463 49.3285 41.9489 49.3285 42.2756V43.0213C49.3285 43.4588 49.4052 43.831 49.5586 44.1378C49.7148 44.4446 49.9322 44.679 50.2106 44.8409C50.489 45 50.8143 45.0795 51.1864 45.0795C51.4279 45.0795 51.6481 45.0455 51.8469 44.9773C52.0458 44.9062 52.2177 44.8011 52.3626 44.6619C52.5075 44.5227 52.6183 44.3509 52.695 44.1463L53.9009 44.3636C53.8043 44.7187 53.631 45.0298 53.381 45.2969C53.1339 45.5611 52.8228 45.767 52.4478 45.9148C52.0756 46.0597 51.6509 46.1321 51.1737 46.1321Z" fill="#A5A8FF"/>
</svg>
